<?xml version="1.0" encoding="UTF-8"?>
<svg width="43px" height="43px" viewBox="0 0 43 43" version="1.1" xmlns="http://www.w3.org/2000/svg" xmlns:xlink="http://www.w3.org/1999/xlink">
    <title>facebook</title>
    <g id="Page-1" stroke="none" stroke-width="1" fill="none" fill-rule="evenodd">
        <g id="Desktop-HD" transform="translate(-1348.000000, -934.000000)" fill="#FFFFFF">
            <g id="SM" transform="translate(1224.000000, 907.000000)">
                <g id="facebook" transform="translate(124.681200, 27.185600)">
                    <path d="M38.645,36.455 C38.645,37.663 37.663,38.644 36.456,38.644 L4.817,38.644 C3.61,38.644 2.627,37.663 2.627,36.455 L2.627,4.816 C2.627,3.609 3.61,2.627 4.817,2.627 L36.456,2.627 C37.663,2.627 38.645,3.609 38.645,4.816 L38.645,36.455 Z M36.456,-2.13162821e-14 L4.817,-2.13162821e-14 C2.161,-2.13162821e-14 -4.26325641e-14,2.161 -4.26325641e-14,4.816 L-4.26325641e-14,36.455 C-4.26325641e-14,39.11 2.161,41.271 4.817,41.271 L36.456,41.271 C39.112,41.271 41.272,39.11 41.272,36.455 L41.272,4.816 C41.272,2.161 39.112,-2.13162821e-14 36.456,-2.13162821e-14 L36.456,-2.13162821e-14 Z" id="Fill-4"></path>
                    <path d="M25.727,9.5761 C24.741,9.5951 23.752,9.5641 22.766,9.5871 C20.633,9.6371 18.877,11.0161 18.442,13.0971 C18.269,13.9241 18.344,14.8021 18.321,15.6561 C18.305,16.1881 18.318,16.7221 18.318,17.3021 C17.331,17.3021 16.42,17.3101 15.511,17.2971 C15.15,17.2911 15.018,17.4281 15.023,17.7891 C15.039,18.8321 15.041,19.8761 15.022,20.9181 C15.014,21.3051 15.183,21.3891 15.526,21.3801 C16.233,21.3621 16.944,21.4121 17.648,21.3631 C18.214,21.3231 18.343,21.5481 18.328,22.0651 C18.294,23.1071 18.321,24.1511 18.317,25.1941 C18.309,26.9281 18.297,29.9631 18.288,31.6951 L22.419,31.6951 L22.419,21.3591 L25.655,21.3591 C25.83,19.9891 25.997,18.6801 26.172,17.3001 C25.006,17.3001 23.966,17.2861 22.927,17.3061 C22.546,17.3141 22.394,17.2011 22.408,16.8041 C22.433,16.0971 22.405,15.3881 22.418,14.6801 C22.434,13.7761 22.907,13.3091 23.803,13.2991 C24.455,13.2911 25.107,13.2841 25.759,13.3011 C26.114,13.3101 26.257,13.1921 26.248,12.8201 C26.229,11.9081 26.225,10.9951 26.25,10.0831 C26.261,9.6801 26.104,9.5691 25.727,9.5761" id="Fill-5"></path>
                </g>
            </g>
        </g>
    </g>
</svg>