<?xml version="1.0" encoding="UTF-8" standalone="no"?>
<!DOCTYPE svg PUBLIC "-//W3C//DTD SVG 1.1//EN" "http://www.w3.org/Graphics/SVG/1.1/DTD/svg11.dtd">
<svg width="100%" height="100%" viewBox="0 0 43 43" version="1.1" xmlns="http://www.w3.org/2000/svg" xmlns:xlink="http://www.w3.org/1999/xlink" xml:space="preserve" xmlns:serif="http://www.serif.com/" style="fill-rule:evenodd;clip-rule:evenodd;stroke-linejoin:round;stroke-miterlimit:2;">
    <g transform="matrix(1,0,0,1,0.6812,0.1856)">
        <g id="Page-1">
            <g id="Desktop-HD">
                <g id="SM">
                    <g id="facebook">
                        <path id="Fill-4" d="M38.645,36.455C38.645,37.663 37.663,38.644 36.456,38.644L4.817,38.644C3.61,38.644 2.627,37.663 2.627,36.455L2.627,4.816C2.627,3.609 3.61,2.627 4.817,2.627L36.456,2.627C37.663,2.627 38.645,3.609 38.645,4.816L38.645,36.455ZM36.456,-0L4.817,-0C2.161,-0 -0,2.161 -0,4.816L-0,36.455C-0,39.11 2.161,41.271 4.817,41.271L36.456,41.271C39.112,41.271 41.272,39.11 41.272,36.455L41.272,4.816C41.272,2.161 39.112,-0 36.456,-0Z"/>
                        <path id="Fill-5" d="M25.727,9.576C24.741,9.595 23.752,9.564 22.766,9.587C20.633,9.637 18.877,11.016 18.442,13.097C18.269,13.924 18.344,14.802 18.321,15.656C18.305,16.188 18.318,16.722 18.318,17.302C17.331,17.302 16.42,17.31 15.511,17.297C15.15,17.291 15.018,17.428 15.023,17.789C15.039,18.832 15.041,19.876 15.022,20.918C15.014,21.305 15.183,21.389 15.526,21.38C16.233,21.362 16.944,21.412 17.648,21.363C18.214,21.323 18.343,21.548 18.328,22.065C18.294,23.107 18.321,24.151 18.317,25.194C18.309,26.928 18.297,29.963 18.288,31.695L22.419,31.695L22.419,21.359L25.655,21.359C25.83,19.989 25.997,18.68 26.172,17.3C25.006,17.3 23.966,17.286 22.927,17.306C22.546,17.314 22.394,17.201 22.408,16.804C22.433,16.097 22.405,15.388 22.418,14.68C22.434,13.776 22.907,13.309 23.803,13.299C24.455,13.291 25.107,13.284 25.759,13.301C26.114,13.31 26.257,13.192 26.248,12.82C26.229,11.908 26.225,10.995 26.25,10.083C26.261,9.68 26.104,9.569 25.727,9.576"/>
                    </g>
                </g>
            </g>
        </g>
    </g>
</svg>
