<?xml version="1.0" encoding="UTF-8" standalone="no"?>
<!DOCTYPE svg PUBLIC "-//W3C//DTD SVG 1.1//EN" "http://www.w3.org/Graphics/SVG/1.1/DTD/svg11.dtd">
<svg width="100%" height="100%" viewBox="0 0 42 42" version="1.1" xmlns="http://www.w3.org/2000/svg" xmlns:xlink="http://www.w3.org/1999/xlink" xml:space="preserve" xmlns:serif="http://www.serif.com/" style="fill-rule:evenodd;clip-rule:evenodd;">
    <g id="Page-1">
        <g id="Mobile">
            <g id="Group-8">
                <g id="Group-3">
                    <g id="instagram">
                        <path id="Fill-4-Copy" d="M38.645,36.455C38.645,37.663 37.663,38.644 36.456,38.644L4.817,38.644C3.61,38.644 2.627,37.663 2.627,36.455L2.627,4.816C2.627,3.609 3.61,2.627 4.817,2.627L36.456,2.627C37.663,2.627 38.645,3.609 38.645,4.816L38.645,36.455ZM36.456,-0L4.817,-0C2.161,-0 -0,2.161 -0,4.816L-0,36.455C-0,39.11 2.161,41.271 4.817,41.271L36.456,41.271C39.112,41.271 41.272,39.11 41.272,36.455L41.272,4.816C41.272,2.161 39.112,-0 36.456,-0Z"/>
                        <path id="Rectangle" d="M30.5,20C30.5,14.757 26.243,10.5 21,10.5C15.757,10.5 11.5,14.757 11.5,20L11.5,21C11.5,26.243 15.757,30.5 21,30.5C26.243,30.5 30.5,26.243 30.5,21L30.5,20Z" style="stroke:white;stroke-width:3px;"/>
                        <circle id="Oval" cx="32" cy="8" r="2"/>
                    </g>
                </g>
            </g>
        </g>
    </g>
</svg>
