<?xml version="1.0" encoding="UTF-8"?>
<svg width="42px" height="42px" viewBox="0 0 42 42" version="1.1" xmlns="http://www.w3.org/2000/svg" xmlns:xlink="http://www.w3.org/1999/xlink">
    <title>instagram</title>
    <g id="Page-1" stroke="none" stroke-width="1" fill="none" fill-rule="evenodd">
        <g id="Mobile" transform="translate(-192.000000, -718.000000)">
            <g id="Group-8" transform="translate(78.000000, 691.000000)">
                <g id="Group-3" transform="translate(8.000000, 27.000000)">
                    <g id="instagram" transform="translate(106.000000, 0.000000)">
                        <path d="M38.645,36.455 C38.645,37.663 37.663,38.644 36.456,38.644 L4.817,38.644 C3.61,38.644 2.627,37.663 2.627,36.455 L2.627,4.816 C2.627,3.609 3.61,2.627 4.817,2.627 L36.456,2.627 C37.663,2.627 38.645,3.609 38.645,4.816 L38.645,36.455 Z M36.456,-2.13162821e-14 L4.817,-2.13162821e-14 C2.161,-2.13162821e-14 -4.26325641e-14,2.161 -4.26325641e-14,4.816 L-4.26325641e-14,36.455 C-4.26325641e-14,39.11 2.161,41.271 4.817,41.271 L36.456,41.271 C39.112,41.271 41.272,39.11 41.272,36.455 L41.272,4.816 C41.272,2.161 39.112,-2.13162821e-14 36.456,-2.13162821e-14 L36.456,-2.13162821e-14 Z" id="Fill-4-Copy" fill="#FFFFFF"></path>
                        <rect id="Rectangle" stroke="#FFFFFF" stroke-width="3" x="11.5" y="10.5" width="19" height="20" rx="9.5"></rect>
                        <circle id="Oval" fill="#FFFFFF" cx="32" cy="8" r="2"></circle>
                    </g>
                </g>
            </g>
        </g>
    </g>
</svg>