<?xml version="1.0" encoding="UTF-8" standalone="no"?>
<!DOCTYPE svg PUBLIC "-//W3C//DTD SVG 1.1//EN" "http://www.w3.org/Graphics/SVG/1.1/DTD/svg11.dtd">
<svg width="100%" height="100%" viewBox="0 0 42 42" version="1.1" xmlns="http://www.w3.org/2000/svg" xmlns:xlink="http://www.w3.org/1999/xlink" xml:space="preserve" xmlns:serif="http://www.serif.com/" style="fill-rule:evenodd;clip-rule:evenodd;stroke-linejoin:round;stroke-miterlimit:2;">
    <g id="Page-1">
        <g id="Desktop-HD">
            <g id="Group-2">
                <path id="Fill-4-Copy-2" d="M38.645,36.455C38.645,37.663 37.663,38.644 36.456,38.644L4.817,38.644C3.61,38.644 2.627,37.663 2.627,36.455L2.627,4.816C2.627,3.609 3.61,2.627 4.817,2.627L36.456,2.627C37.663,2.627 38.645,3.609 38.645,4.816L38.645,36.455ZM36.456,0L4.817,0C2.161,0 0,2.161 0,4.816L0,36.455C0,39.11 2.161,41.271 4.817,41.271L36.456,41.271C39.112,41.271 41.272,39.11 41.272,36.455L41.272,4.816C41.272,2.161 39.112,0 36.456,0Z"/>
                <path id="Fill-1" d="M32.993,32L29.044,32C29.044,31.655 29.047,31.344 29.043,31.032C29.018,28.506 29.047,25.978 28.951,23.454C28.852,20.829 26.641,19.521 24.379,20.673C23.328,21.208 22.896,22.171 22.85,23.25C22.748,25.665 22.746,28.084 22.706,30.502C22.698,30.98 22.704,31.46 22.704,31.986L19,31.986L19,17.221L22.517,17.221C22.517,17.678 22.523,19.137 22.523,19.46C23.666,16.124 29.331,16.747 31.075,18.034C32.229,18.887 32.731,20.095 32.815,21.437C32.948,23.58 32.952,25.732 32.989,27.88C33.011,29.223 32.993,30.566 32.993,32"/>
                <rect id="Rectangle" x="11" y="17" width="4" height="15"/>
                <circle id="Oval" cx="13" cy="12" r="2"/>
            </g>
        </g>
    </g>
</svg>
