<?xml version="1.0" encoding="UTF-8"?>
<svg width="42px" height="42px" viewBox="0 0 42 42" version="1.1" xmlns="http://www.w3.org/2000/svg" xmlns:xlink="http://www.w3.org/1999/xlink">
    <!-- Generator: Sketch 63.1 (92452) - https://sketch.com -->
    <title>Group 2</title>
    <desc>Created with Sketch.</desc>
    <defs>
        <polygon id="path-1" points="19 17 33 17 33 32 19 32"></polygon>
    </defs>
    <g id="Page-1" stroke="none" stroke-width="1" fill="none" fill-rule="evenodd">
        <g id="Desktop-HD" transform="translate(-1347.000000, -934.000000)">
            <g id="Group-2" transform="translate(1347.000000, 934.000000)">
                <path d="M38.645,36.455 C38.645,37.663 37.663,38.644 36.456,38.644 L4.817,38.644 C3.61,38.644 2.627,37.663 2.627,36.455 L2.627,4.816 C2.627,3.609 3.61,2.627 4.817,2.627 L36.456,2.627 C37.663,2.627 38.645,3.609 38.645,4.816 L38.645,36.455 Z M36.456,0 L4.817,0 C2.161,0 0,2.161 0,4.816 L0,36.455 C0,39.11 2.161,41.271 4.817,41.271 L36.456,41.271 C39.112,41.271 41.272,39.11 41.272,36.455 L41.272,4.816 C41.272,2.161 39.112,0 36.456,0 L36.456,0 Z" id="Fill-4-Copy-2" fill="#FFFFFF"></path>
                <path d="M32.992839,32 L29.0437815,32 C29.0437815,31.6552162 29.046521,31.3436529 29.0434592,31.0320896 C29.0183203,28.5058789 29.0468433,25.9775717 28.9512834,23.4539412 C28.8520171,20.8288753 26.640764,19.5213415 24.3785887,20.6732549 C23.3282354,21.2080085 22.8962015,22.1709197 22.8504358,23.2504253 C22.7481078,25.6650408 22.7455294,28.0841718 22.7055651,30.5015289 C22.6976689,30.9803236 22.7044371,31.4596022 22.7044371,31.9861312 L19,31.9861312 L19,17.2205788 L22.5165402,17.2205788 C22.5165402,17.6776028 22.5231472,19.1373704 22.5231472,19.4598997 C23.6661597,16.1238179 29.3311058,16.7469445 31.0747116,18.0344815 C32.2286821,18.8867651 32.7312982,20.0951212 32.8147721,21.436843 C32.9478792,23.5798889 32.9522301,25.7316431 32.9888104,27.8800108 C33.0113709,29.222539 32.992839,30.5657122 32.992839,32" id="Fill-1" fill="#FFFFFF"></path>
                <rect id="Rectangle" fill="#FFFFFF" x="11" y="17" width="4" height="15"></rect>
                <circle id="Oval" fill="#FFFFFF" cx="13" cy="12" r="2"></circle>
                <mask id="mask-2" fill="white">
                    <use xlink:href="#path-1"></use>
                </mask>
                <g id="Clip-2"></g>
            </g>
        </g>
    </g>
</svg>