<?xml version="1.0" encoding="UTF-8" standalone="no"?>
<!DOCTYPE svg PUBLIC "-//W3C//DTD SVG 1.1//EN" "http://www.w3.org/Graphics/SVG/1.1/DTD/svg11.dtd">
<svg width="100%" height="100%" viewBox="0 0 43 43" version="1.1" xmlns="http://www.w3.org/2000/svg" xmlns:xlink="http://www.w3.org/1999/xlink" xml:space="preserve" xmlns:serif="http://www.serif.com/" style="fill-rule:evenodd;clip-rule:evenodd;stroke-linejoin:round;stroke-miterlimit:2;">
    <g transform="matrix(1,0,0,1,0.6909,0.1856)">
        <g id="Page-1">
            <g id="Desktop-HD">
                <g id="SM">
                    <g id="twitter">
                        <path id="Fill-2" d="M38.645,36.455C38.645,37.663 37.663,38.644 36.456,38.644L4.817,38.644C3.61,38.644 2.627,37.663 2.627,36.455L2.627,4.816C2.627,3.609 3.61,2.627 4.817,2.627L36.456,2.627C37.663,2.627 38.645,3.609 38.645,4.816L38.645,36.455ZM36.456,-0L4.817,-0C2.161,-0 -0,2.161 -0,4.816L-0,36.455C-0,39.11 2.161,41.271 4.817,41.271L36.456,41.271C39.112,41.271 41.272,39.11 41.272,36.455L41.272,4.816C41.272,2.161 39.112,-0 36.456,-0Z"/>
                        <path id="Fill-3" d="M28.085,14.836C28.878,14.317 29.443,13.616 29.772,12.726C29.784,12.693 29.794,12.659 29.81,12.604C29.755,12.635 29.721,12.652 29.689,12.67C28.921,13.102 28.106,13.411 27.243,13.593C27.167,13.609 27.125,13.586 27.074,13.537C25.952,12.45 24.621,12.051 23.1,12.393C20.927,12.882 19.499,15.026 19.919,17.271C19.929,17.331 19.938,17.391 19.951,17.465C19.104,17.427 18.286,17.301 17.483,17.085C14.974,16.412 12.902,15.059 11.231,13.06C10.877,13.684 10.683,14.34 10.673,15.042C10.653,16.572 11.297,17.772 12.523,18.679C12.193,18.679 11.874,18.628 11.56,18.544C11.244,18.458 10.942,18.33 10.636,18.173C10.637,18.895 10.793,19.56 11.128,20.179C11.755,21.331 12.721,22.04 13.995,22.349C13.966,22.366 13.939,22.378 13.911,22.385C13.36,22.517 12.805,22.546 12.246,22.453C12.211,22.448 12.175,22.448 12.129,22.445C12.243,22.795 12.393,23.104 12.581,23.397C12.766,23.688 12.985,23.952 13.235,24.189C13.488,24.43 13.766,24.635 14.07,24.806C14.37,24.975 14.687,25.104 15.019,25.197C15.352,25.29 15.693,25.332 16.041,25.362C15.498,25.806 14.907,26.161 14.271,26.442C12.869,27.064 11.403,27.285 9.872,27.142C9.902,27.162 9.933,27.184 9.965,27.203C10.431,27.492 10.917,27.749 11.42,27.972C12.77,28.571 14.185,28.913 15.66,28.98C16.315,29.01 16.971,29.004 17.626,28.932C18.172,28.872 18.714,28.788 19.248,28.66C21.538,28.111 23.48,26.97 25.066,25.23C26.453,23.711 27.386,21.941 27.909,19.953C28.092,19.252 28.213,18.539 28.263,17.814C28.294,17.396 28.312,16.977 28.287,16.559C28.281,16.467 28.304,16.41 28.382,16.353C29.126,15.805 29.76,15.148 30.291,14.391C30.31,14.362 30.339,14.336 30.343,14.289C29.587,14.61 28.811,14.824 28.001,14.907C28.025,14.876 28.054,14.855 28.085,14.836"/>
                    </g>
                </g>
            </g>
        </g>
    </g>
</svg>
