<?xml version="1.0" encoding="UTF-8"?>
<svg width="43px" height="43px" viewBox="0 0 43 43" version="1.1" xmlns="http://www.w3.org/2000/svg" xmlns:xlink="http://www.w3.org/1999/xlink">
    <title>twitter</title>
    <g id="Page-1" stroke="none" stroke-width="1" fill="none" fill-rule="evenodd">
        <g id="Desktop-HD" transform="translate(-1295.000000, -934.000000)" fill="#FFFFFF">
            <g id="SM" transform="translate(1224.000000, 907.000000)">
                <g id="twitter" transform="translate(71.690900, 27.185600)">
                    <path d="M38.645,36.455 C38.645,37.663 37.663,38.644 36.456,38.644 L4.817,38.644 C3.61,38.644 2.627,37.663 2.627,36.455 L2.627,4.816 C2.627,3.609 3.61,2.627 4.817,2.627 L36.456,2.627 C37.663,2.627 38.645,3.609 38.645,4.816 L38.645,36.455 Z M36.456,-2.13162821e-14 L4.817,-2.13162821e-14 C2.161,-2.13162821e-14 -3.90798505e-14,2.161 -3.90798505e-14,4.816 L-3.90798505e-14,36.455 C-3.90798505e-14,39.11 2.161,41.271 4.817,41.271 L36.456,41.271 C39.112,41.271 41.272,39.11 41.272,36.455 L41.272,4.816 C41.272,2.161 39.112,-2.13162821e-14 36.456,-2.13162821e-14 L36.456,-2.13162821e-14 Z" id="Fill-2"></path>
                    <path d="M28.0849,14.836 C28.8779,14.317 29.4429,13.616 29.7719,12.726 C29.7839,12.693 29.7939,12.659 29.8099,12.604 C29.7549,12.635 29.7209,12.652 29.6889,12.67 C28.9209,13.102 28.1059,13.411 27.2429,13.593 C27.1669,13.609 27.1249,13.586 27.0739,13.537 C25.9519,12.45 24.6209,12.051 23.0999,12.393 C20.9269,12.882 19.4989,15.026 19.9189,17.271 C19.9289,17.331 19.9379,17.391 19.9509,17.465 C19.1039,17.427 18.2859,17.301 17.4829,17.085 C14.9739,16.412 12.9019,15.059 11.2309,13.06 C10.8769,13.684 10.6829,14.34 10.6729,15.042 C10.6529,16.572 11.2969,17.772 12.5229,18.679 C12.1929,18.679 11.8739,18.628 11.5599,18.544 C11.2439,18.458 10.9419,18.33 10.6359,18.173 C10.6369,18.895 10.7929,19.56 11.1279,20.179 C11.7549,21.331 12.7209,22.04 13.9949,22.349 C13.9659,22.366 13.9389,22.378 13.9109,22.385 C13.3599,22.517 12.8049,22.546 12.2459,22.453 C12.2109,22.448 12.1749,22.448 12.1289,22.445 C12.2429,22.795 12.3929,23.104 12.5809,23.397 C12.7659,23.688 12.9849,23.952 13.2349,24.189 C13.4879,24.43 13.7659,24.635 14.0699,24.806 C14.3699,24.975 14.6869,25.104 15.0189,25.197 C15.3519,25.29 15.6929,25.332 16.0409,25.362 C15.4979,25.806 14.9069,26.161 14.2709,26.442 C12.8689,27.064 11.4029,27.285 9.8719,27.142 C9.9019,27.162 9.9329,27.184 9.9649,27.203 C10.4309,27.492 10.9169,27.749 11.4199,27.972 C12.7699,28.571 14.1849,28.913 15.6599,28.98 C16.3149,29.01 16.9709,29.004 17.6259,28.932 C18.1719,28.872 18.7139,28.788 19.2479,28.66 C21.5379,28.111 23.4799,26.97 25.0659,25.23 C26.4529,23.711 27.3859,21.941 27.9089,19.953 C28.0919,19.252 28.2129,18.539 28.2629,17.814 C28.2939,17.396 28.3119,16.977 28.2869,16.559 C28.2809,16.467 28.3039,16.41 28.3819,16.353 C29.1259,15.805 29.7599,15.148 30.2909,14.391 C30.3099,14.362 30.3389,14.336 30.3429,14.289 C29.5869,14.61 28.8109,14.824 28.0009,14.907 C28.0249,14.876 28.0539,14.855 28.0849,14.836" id="Fill-3"></path>
                </g>
            </g>
        </g>
    </g>
</svg>