<svg width="228" height="51" viewBox="0 0 228 51" fill="none" xmlns="http://www.w3.org/2000/svg">
<path d="M71.1945 7.95669C70.358 4.8246 67.8945 2.35845 64.7658 1.52106C59.095 0 36.3566 0 36.3566 0C36.3566 0 13.6182 0 7.94817 1.52106C4.81943 2.35845 2.35593 4.8246 1.51943 7.95669C0 13.6336 0 25.4768 0 25.4768C0 25.4768 0 37.3208 1.51943 42.997C2.35593 46.1291 4.81943 48.5952 7.94817 49.4326C13.619 50.9537 36.3566 50.9537 36.3566 50.9537C36.3566 50.9537 59.095 50.9537 64.7651 49.4326C67.8938 48.5952 70.3573 46.1291 71.1938 42.997C72.7132 37.3201 72.7132 25.4768 72.7132 25.4768C72.7132 25.4768 72.7132 13.6328 71.1938 7.95669H71.1945ZM29.0857 36.3956V14.5581L47.9763 25.4768L29.0857 36.3956Z" fill="black"/>
<path d="M105.544 46.3572C104.105 45.3859 103.082 43.8762 102.476 41.8288C101.869 39.7813 101.566 37.0573 101.566 33.656V29.0234C101.566 25.5874 101.912 22.8286 102.606 20.7465C103.299 18.6643 104.382 17.1468 105.855 16.1918C107.329 15.2375 109.262 14.76 111.654 14.76C114.046 14.76 115.9 15.246 117.322 16.2173C118.743 17.1893 119.782 18.7075 120.442 20.772C121.1 22.8371 121.43 25.5874 121.43 29.0227V33.6553C121.43 37.0566 121.109 39.7898 120.468 41.8543C119.826 43.9194 118.787 45.4291 117.348 46.3827C115.909 47.337 113.959 47.8145 111.498 47.8145C109.037 47.8145 106.982 47.3285 105.544 46.3572ZM113.604 41.3598C114.002 40.319 114.202 38.6187 114.202 36.2589V26.3164C114.202 24.0259 114.002 22.3518 113.604 21.2927C113.205 20.2343 112.503 19.705 111.498 19.705C110.493 19.705 109.842 20.2343 109.444 21.2927C109.045 22.3518 108.846 24.0259 108.846 26.3164V36.2589C108.846 38.6194 109.036 40.319 109.418 41.3598C109.799 42.4012 110.492 42.9212 111.498 42.9212C112.504 42.9212 113.205 42.4005 113.604 41.3598Z" fill="black"/>
<path d="M215.988 33.7318V35.3456C215.988 37.3938 216.047 38.929 216.169 39.9527C216.29 40.9771 216.541 41.7224 216.924 42.1914C217.305 42.6597 217.893 42.8942 218.692 42.8942C219.765 42.8942 220.503 42.4777 220.902 41.6445C221.3 40.8121 221.517 39.4242 221.552 37.4802L227.74 37.8444C227.775 38.1228 227.793 38.5039 227.793 38.9899C227.793 41.9399 226.987 44.1432 225.374 45.6013C223.763 47.0585 221.483 47.7876 218.537 47.7876C215.001 47.7876 212.522 46.6774 211.1 44.4557C209.678 42.2354 208.968 38.8001 208.968 34.149V28.5791C208.968 23.79 209.705 20.2944 211.178 18.0897C212.651 15.8864 215.173 14.7841 218.744 14.7841C221.205 14.7841 223.094 15.2353 224.412 16.1379C225.729 17.0405 226.656 18.4461 227.194 20.354C227.731 22.2632 228 24.9008 228 28.2667V33.7325H215.988L215.988 33.7318ZM216.897 20.3015C216.533 20.7528 216.29 21.4903 216.169 22.514C216.047 23.5385 215.988 25.0907 215.988 27.1729V29.4633H221.239V27.1729C221.239 25.1254 221.17 23.5725 221.032 22.514C220.893 21.4556 220.642 20.7103 220.278 20.276C219.913 19.8424 219.35 19.6249 218.588 19.6249C217.825 19.6249 217.261 19.8509 216.898 20.3015H216.897Z" fill="black"/>
<path d="M88.0703 33.1345L79.9062 3.61877H87.0299L89.8898 16.9973C90.618 20.2944 91.1551 23.1056 91.5019 25.4301H91.71C91.952 23.7645 92.4898 20.971 93.3221 17.0497L96.2859 3.61948H103.41L95.1423 33.1352V47.2952H88.0703V33.1352V33.1345Z" fill="black"/>
<path d="M144.599 15.3842V47.2938H138.984L138.359 43.3895H138.204C136.678 46.3395 134.39 47.8138 131.34 47.8138C129.225 47.8138 127.665 47.1202 126.66 45.7316C125.654 44.3438 125.152 42.1745 125.152 39.2245V15.3842H132.328V38.8093C132.328 40.2326 132.484 41.2478 132.795 41.8543C133.107 42.4621 133.628 42.7653 134.355 42.7653C134.979 42.7653 135.577 42.5748 136.149 42.1922C136.722 41.811 137.146 41.325 137.423 40.7349V15.3842H144.599Z" fill="black"/>
<path d="M181.407 15.3842V47.2938H175.792L175.167 43.3895H175.012C173.486 46.3395 171.198 47.8138 168.148 47.8138C166.033 47.8138 164.473 47.1202 163.468 45.7316C162.462 44.3438 161.96 42.1745 161.96 39.2245V15.3842H169.136V38.8093C169.136 40.2326 169.292 41.2478 169.604 41.8543C169.916 42.4621 170.436 42.7653 171.163 42.7653C171.788 42.7653 172.385 42.5748 172.957 42.1922C173.53 41.811 173.954 41.325 174.231 40.7349V15.3842H181.407Z" fill="black"/>
<path d="M164.099 9.39769H156.975V47.2938H149.956V9.39769H142.832V3.61951H164.1V9.39769H164.099Z" fill="black"/>
<path d="M205.157 20.485C204.723 18.473 204.021 17.0157 203.051 16.1124C202.08 15.2106 200.745 14.7593 199.047 14.7593C197.729 14.7593 196.499 15.1326 195.355 15.8786C194.21 16.6253 193.326 17.6059 192.703 18.8201H192.65V2.00562H185.736V47.2938H191.663L192.391 44.2743H192.548C193.102 45.3505 193.934 46.1999 195.044 46.8248C196.153 47.4496 197.384 47.7613 198.736 47.7613C201.162 47.7613 202.947 46.642 204.092 44.404C205.235 42.1652 205.808 38.6697 205.808 33.9145V28.8654C205.808 25.2919 205.591 22.4978 205.158 20.4843L205.157 20.485ZM198.579 33.5008C198.579 35.826 198.483 37.6481 198.293 38.9666C198.102 40.2857 197.781 41.223 197.331 41.7777C196.88 42.3331 196.273 42.6109 195.512 42.6109C194.921 42.6109 194.376 42.4727 193.873 42.1943C193.37 41.9166 192.963 41.5007 192.651 40.9453V22.83C192.893 21.9629 193.309 21.2516 193.9 20.6961C194.488 20.1414 195.13 19.863 195.823 19.863C196.551 19.863 197.114 20.1492 197.513 20.7216C197.911 21.2941 198.189 22.2576 198.345 23.6107C198.502 24.9639 198.58 26.8902 198.58 29.3889V33.5015L198.579 33.5008Z" fill="black"/>
</svg>
